<?xml version="1.0" standalone="no"?>
<!DOCTYPE svg PUBLIC "-//W3C//DTD SVG 20010904//EN"
 "http://www.w3.org/TR/2001/REC-SVG-20010904/DTD/svg10.dtd">
<svg version="1.0" xmlns="http://www.w3.org/2000/svg"
 width="512.000000pt" height="512.000000pt" viewBox="0 0 512.000000 512.000000"
 preserveAspectRatio="xMidYMid meet">
<metadata>
Created by potrace 1.14, written by Peter Selinger 2001-2017
</metadata>
<g transform="translate(0.000000,512.000000) scale(0.100000,-0.100000)"
fill="#000000" stroke="none">
<path d="M0 2560 l0 -2560 2560 0 2560 0 0 2560 0 2560 -2560 0 -2560 0 0
-2560z m2915 2400 c15 -16 15 -22 5 -35 -19 -23 -40 -18 -40 10 0 14 -5 25
-11 25 -5 0 -7 5 -4 10 10 16 30 12 50 -10z m1426 -340 c16 0 10 -70 -6 -76
-19 -8 -75 14 -75 29 0 19 43 58 58 52 7 -3 18 -5 23 -5z m-981 -95 c0 -18 -5
-25 -20 -25 -20 0 -28 28 -13 43 15 16 33 6 33 -18z m-2376 -211 c42 -21 188
-128 228 -167 25 -25 323 -292 367 -329 69 -58 125 -81 191 -76 37 3 67 12 87
26 35 25 63 29 63 9 0 -7 -9 -30 -20 -52 -42 -83 -17 -164 83 -268 34 -35 153
-145 264 -245 110 -100 220 -204 242 -231 123 -146 119 -269 -11 -436 -24 -30
-51 -55 -60 -55 -24 0 -23 10 7 66 41 77 31 140 -36 231 -21 28 -152 155 -291
282 -139 126 -265 245 -279 263 -61 78 -79 146 -59 227 6 27 9 54 6 59 -3 5
-33 0 -67 -11 -54 -18 -68 -19 -118 -9 -67 14 -148 68 -271 178 -47 42 -141
127 -209 188 -150 135 -210 182 -276 212 -71 34 -112 31 -175 -11 -56 -38 -65
-41 -75 -24 -7 10 84 98 157 153 84 61 157 67 252 20z m3832 -419 c10 -26 -25
-168 -58 -235 -46 -95 -140 -184 -252 -240 l-89 -45 -331 -5 -331 -5 -3 -1018
c-2 -924 -1 -1020 14 -1042 9 -14 13 -25 9 -25 -4 0 0 -12 10 -26 13 -20 14
-28 4 -40 -7 -8 -19 -12 -27 -9 -9 3 -19 1 -22 -6 -10 -14 -50 -2 -50 16 0 8
-18 15 -47 20 -27 4 -86 24 -132 46 -139 65 -247 195 -286 344 -13 51 -15 174
-15 865 0 443 -3 822 -6 842 l-7 38 -301 0 c-329 0 -365 4 -474 59 -154 78
-266 243 -287 424 l-6 57 1341 0 c1173 0 1341 -2 1346 -15z m-3133 -410 c-14
-34 -215 -335 -224 -335 -4 0 5 39 22 87 16 47 27 88 26 90 -2 1 -36 -13 -77
-33 -97 -46 -121 -41 -50 11 30 22 97 78 150 123 107 94 153 121 158 93 2 -9
-1 -26 -5 -36z m-1209 -31 c132 -32 260 -131 329 -255 69 -124 67 -95 69
-1025 l3 -839 833 -2 c926 -3 909 -2 1031 -70 151 -84 271 -273 271 -424 l0
-49 -1337 2 -1338 3 -3 1343 -2 1342 42 -6 c24 -3 69 -12 102 -20z m646 -94
c0 -5 -9 -27 -21 -50 -49 -94 -31 -168 68 -272 32 -33 148 -142 258 -241 215
-194 251 -230 294 -292 50 -72 62 -139 40 -218 -6 -22 -8 -41 -5 -44 3 -3 26
2 52 11 95 32 180 15 275 -57 31 -23 146 -123 255 -221 278 -251 327 -287 411
-306 43 -10 104 6 136 36 29 26 57 32 57 11 0 -21 -105 -120 -167 -157 -71
-44 -149 -52 -214 -23 -69 31 -187 125 -419 332 -118 106 -237 206 -265 222
-67 39 -151 41 -210 4 -68 -42 -81 -30 -45 40 37 73 22 149 -46 232 -20 24
-140 138 -267 254 -128 116 -252 234 -275 262 -87 103 -110 192 -77 287 21 60
124 200 147 200 10 0 18 -4 18 -10z m-1028 -337 c3 -10 1 -33 -4 -51 -7 -26
-13 -33 -31 -30 -24 3 -48 43 -40 65 6 14 37 31 59 32 7 1 14 -7 16 -16z
m1948 -398 c-16 -47 -25 -85 -20 -85 5 0 43 16 85 35 42 19 75 29 72 22 -2 -6
-46 -45 -97 -85 -52 -40 -112 -89 -134 -110 -48 -45 -87 -72 -103 -72 -32 0
-6 58 85 197 55 81 104 158 111 171 7 12 16 20 21 17 5 -3 -4 -44 -20 -90z
m2387 -2431 c19 -26 16 -54 -9 -75 -27 -24 -30 -24 -61 5 -14 13 -32 26 -39
29 -8 3 -6 6 5 6 14 1 17 6 12 22 -5 13 -2 25 6 30 20 12 72 2 86 -17z"/>
<path d="M2890 4940 c0 -5 5 -10 10 -10 6 0 10 5 10 10 0 6 -4 10 -10 10 -5 0
-10 -4 -10 -10z"/>
<path d="M40 3000 c0 -5 5 -10 10 -10 6 0 10 5 10 10 0 6 -4 10 -10 10 -5 0
-10 -4 -10 -10z"/>
</g>
</svg>
